<?xml version="1.0" encoding="utf-8"?>
<!-- Generator: Adobe Illustrator 13.0.0, SVG Export Plug-In . SVG Version: 6.00 Build 14948)  -->
<!DOCTYPE svg PUBLIC "-//W3C//DTD SVG 1.1//EN" "http://www.w3.org/Graphics/SVG/1.1/DTD/svg11.dtd">


<svg version="1.1" id="Layer_1" xmlns="http://www.w3.org/2000/svg" xmlns:xlink="http://www.w3.org/1999/xlink" x="0px" y="0px"
	 width="288px" height="288px" viewBox="0 0 288 288" enable-background="new 0 0 288 288" xml:space="preserve">
<g>
	<path fill="#FFFFFF" d="M143.94,286.988C61.543,270.24,0.993,196.273,0.993,111.833c0-39.774,13.756-79.983,38.198-110.689
		c16.064,4.885,34.982,7.781,52.437,7.781c17.459,0,36.316-2.792,52.373-7.677c16.062,4.885,34.914,7.677,52.367,7.677
		c17.46,0,36.376-2.896,52.437-7.781c24.447,30.706,38.202,70.915,38.202,110.689C287.006,196.273,226.342,270.24,143.94,286.988z"
		/>
	<path d="M248.518,0.193c-16.17,4.92-35.179,7.739-52.149,7.739c-17.15,0-36.128-2.784-52.078-7.634L144,0.209l-0.289,0.089
		c-15.944,4.85-34.927,7.634-52.083,7.634c-16.968,0-35.977-2.819-52.147-7.739L38.834,0l-0.421,0.527C14,31.194,0,71.764,0,111.833
		c0,85.127,60.451,159.196,143.742,176.129L143.94,288l0.198-0.038C227.497,271.016,288,196.939,288,111.833
		c0-40.069-14.004-80.638-38.421-111.305L249.16,0L248.518,0.193z M144,2.272c16.068,4.854,35.131,7.645,52.367,7.645l0,0
		c16.925,0,35.833-2.795,52.033-7.641c23.896,30.264,37.613,70.143,37.613,109.557c0,84.101-59.742,157.298-142.075,174.132
		C61.676,269.146,1.986,195.952,1.986,111.833l0,0c0-39.414,13.713-79.293,37.61-109.557C55.8,7.122,74.704,9.917,91.627,9.917
		C108.874,9.917,127.936,7.126,144,2.272z"/>
	<path fill="#005A9C" d="M55.868,231.927c-4.677-5.048-9.276-10.173-13.475-15.632c-4.215-5.479-7.94-11.341-11.496-17.27
		c-7.209-12.01-12.978-25.176-16.918-38.623c-2.027-6.924-3.596-14.045-4.824-21.147c-1.247-7.216-1.775-14.489-2.032-21.801
		c-0.522-14.608,0.968-29.085,4.106-43.356c0.374-1.694,0.768-3.381,1.188-5.071c0.063-0.264,0.198-1.605,0.532-1.663
		c0.78-0.132,1.697,0.004,2.486,0.004c3.588,0,7.174,0,10.761,0c7.406,0,14.806,0,22.211,0c14.863,0,29.733,0,44.598,0
		c29.749,0,59.501,0,89.251,0c29.717,0,59.424,0,89.139,0c0.535,0,3.842-0.303,4.02,0.112c0.295,0.686,0.389,1.5,0.531,2.229
		c0.432,2.175,0.873,4.338,1.326,6.506c1.481,7.157,2.636,14.392,3.215,21.684c1.149,14.531,0.468,29.326-2.09,43.678
		c-4.941,27.713-16.836,54.147-34.172,76.331c-8.404,10.76-18.098,20.646-28.815,29.105c-5.377,4.248-10.943,8.332-16.774,11.937
		c-5.896,3.641-12.057,6.815-18.294,9.809c-6.366,3.054-12.948,5.55-19.677,7.666c-3.363,1.054-6.746,2.06-10.163,2.942
		c-1.649,0.427-3.317,0.789-4.985,1.162c-0.73,0.162-1.445,0.404-2.201,0.279c-0.793-0.125-1.56-0.423-2.347-0.598
		c-14.01-3.063-27.425-8.239-40.153-14.787c-8.203-4.218-16.151-9.057-23.549-14.581C69.651,245.159,62.605,238.619,55.868,231.927"
		/>
	<path fill="#BF2F37" d="M14.56,61.416c3.912-13.434,9.636-26.208,16.743-38.254c1.751-2.974,3.59-5.893,5.53-8.75
		c0.929-1.368,1.883-2.726,2.859-4.067c0.405-0.562,0.795-1.117,1.181-1.694c0.512-0.764,1.028-0.523,1.824-0.314
		c7.009,1.888,14.144,3.346,21.326,4.42c14.48,2.171,29.156,2.656,43.745,1.38c7.258-0.632,14.487-1.659,21.629-3.098
		c3.509-0.713,6.996-1.523,10.46-2.435c1.358-0.357,3.249-1.299,4.655-1.028c1.637,0.318,3.264,0.942,4.889,1.357
		c28.146,7.23,57.688,7.727,86.115,1.749c2.991-0.632,5.971-1.334,8.928-2.113c0.316-0.085,1.971-0.794,2.18-0.511
		c0.9,1.213,1.8,2.431,2.673,3.667c3.565,5.037,6.886,10.267,9.873,15.667c5.968,10.79,10.729,22.235,14.312,34.025
		c-29.773,0-59.551,0-89.321,0c-29.785,0-59.56,0-89.338,0C68.066,61.416,41.313,61.416,14.56,61.416"/>
    <path fill="#FFFFFF" d="M43,19.589c2.43-0.432,5.724-0.756,10.152-0.756c4.86,0,8.37,1.026,10.692,2.97
        c2.16,1.782,3.564,4.644,3.564,8.046c0,3.456-1.08,6.264-3.078,8.208C61.63,40.705,57.526,42,52.829,42
        c-1.242,0-2.322-0.055-3.24-0.27V55.5H43V19.589z M49.588,36.493c0.864,0.27,1.89,0.324,3.24,0.324
        c4.968,0,7.992-2.484,7.992-6.696c0-4.05-2.808-6.156-7.398-6.156c-1.836,0-3.132,0.162-3.834,0.324V36.493z"/>
    <path fill="#FFFFFF" d="M76.643,45.186L73.511,55.5h-6.858l11.664-36.396h8.478L98.621,55.5h-7.182l-3.294-10.314H76.643z
         M87.064,40.165l-2.862-8.964c-0.702-2.215-1.296-4.699-1.836-6.804h-0.108c-0.54,2.106-1.134,4.644-1.728,6.804l-2.808,8.964
        H87.064z"/>
    <path fill="#FFFFFF" d="M128.645,54.475c-1.566,0.756-5.022,1.619-9.451,1.619c-11.556,0-18.576-7.236-18.576-18.359
        c0-11.988,8.37-19.226,19.494-19.226c4.374,0,7.453,0.918,8.802,1.62l-1.404,5.292c-1.728-0.756-4.158-1.404-7.128-1.404
        c-7.398,0-12.744,4.644-12.744,13.392c0,8.046,4.644,13.122,12.69,13.122c2.646,0,5.454-0.54,7.236-1.297L128.645,54.475z"/>
    <path fill="#FFFFFF" d="M150.297,24.667H139.93v-5.562h27.486v5.562h-10.477V55.5h-6.643V24.667L150.297,24.667z"/>
    <path fill="#FFFFFF" d="M202.461,36.924c0,12.204-7.398,19.17-17.389,19.17c-10.314,0-16.795-7.884-16.795-18.521
        c0-11.232,7.074-19.116,17.334-19.116C196.195,18.457,202.461,26.501,202.461,36.924z M175.299,37.411
        c0,7.451,3.727,13.338,10.098,13.338c6.428,0,10.045-5.994,10.045-13.607c0-6.858-3.4-13.339-10.045-13.339
        C178.809,23.801,175.299,29.904,175.299,37.411z"/>
    <path fill="#FFFFFF" d="M238.91,40.651c-0.217-4.698-0.486-10.368-0.432-15.282h-0.162c-1.188,4.428-2.699,9.342-4.32,13.932
        l-5.346,15.769h-5.076l-4.859-15.553c-1.404-4.644-2.701-9.612-3.672-14.147h-0.109c-0.162,4.752-0.377,10.53-0.646,15.498
        L213.477,55.5h-6.211l2.43-36.396h8.748l4.752,14.634c1.299,4.266,2.432,8.586,3.35,12.636h0.162
        c0.973-3.942,2.215-8.424,3.619-12.69l5.02-14.58h8.641l2.105,36.396h-6.479L238.91,40.651z"/>
    <path fill="#FFFFFF" d="M201.594,91.5v21.12l-58.96,121.88h-35.42l58.961-115.06V119h-65.561V91.5H201.594z"/>
</g>
</svg>
