<?xml version="1.0" encoding="utf-8"?>
<!-- Generator: Adobe Illustrator 11.0, SVG Export Plug-In  -->
<!DOCTYPE svg PUBLIC "-//W3C//DTD SVG 1.0//EN"    "http://www.w3.org/TR/2001/REC-SVG-20010904/DTD/svg10.dtd" [
	<!ENTITY ns_flows "http://ns.adobe.com/Flows/1.0/">
	<!ENTITY ns_svg "http://www.w3.org/2000/svg">
	<!ENTITY ns_xlink "http://www.w3.org/1999/xlink">
]>
<svg  xmlns="&ns_svg;" xmlns:xlink="&ns_xlink;" xmlns:a="http://ns.adobe.com/AdobeSVGViewerExtensions/3.0/"
	 width="22" height="23" viewBox="-0.695 -0.5 22 23" xml:space="preserve">
	<defs>
	</defs>
	<g>
		<path fill="none" stroke="#000000" d="M10.263,4.979c0-2.474,2.005-4.479,4.479-4.479s4.479,2.005,4.479,4.479
			c0,2.474-2.005,4.479-4.479,4.479l4.446,1.792l-4.446,1.792c2.474,0,4.479,2.005,4.479,4.479c0,2.474-2.005,4.479-4.479,4.479
			s-4.479-2.005-4.479-4.479c0,2.474-2.005,4.479-4.479,4.479c-2.474,0-4.479-2.005-4.479-4.479c0-2.474,2.005-4.479,4.479-4.479
			l-4.446-1.758l4.446-1.825c-2.474,0-4.479-2.005-4.479-4.479C1.305,2.505,3.31,0.5,5.784,0.5C8.258,0.5,10.263,2.505,10.263,4.979
			z"/>
	</g>
</svg>
