<?xml version="1.0" encoding="utf-8"?>
<!DOCTYPE svg PUBLIC "-//W3C//DTD SVG 1.0//EN"    "http://www.w3.org/TR/2001/REC-SVG-20010904/DTD/svg10.dtd" [
	<!ENTITY ns_flows "http://ns.adobe.com/Flows/1.0/">
	<!ENTITY ns_svg "http://www.w3.org/2000/svg">
	<!ENTITY ns_xlink "http://www.w3.org/1999/xlink">
]>
<svg  xmlns="&ns_svg;" xmlns:xlink="&ns_xlink;" xmlns:a="http://ns.adobe.com/AdobeSVGViewerExtensions/3.0/"
	 width="283" height="142" viewBox="-0.967 -0.291 283 142" xml:space="preserve">
	<defs>
	</defs>
	<g>
		<path d="M5.222,58.813h-1.5v-6.565H1.656v-1.2h5.631v1.2H5.222V58.813z"/>

		<path d="M7.094,67.832H5.695v-3.375H3.363v3.375H1.963v-7.766h1.399v3.192h2.333v-3.192h1.399V67.832z"/>
		<path d="M8.999,125.651H0v-11.744h8.92v1.748H2.116v3.182h5.736v1.704H2.116v3.286h6.883V125.651z"/>
		<path d="M2.175,94.493H0V82.749h8.791v1.815H2.175v3.211h5.497v1.762H2.175V94.493z"/>
		<path d="M8.411,110.071H6.175l-1.824-4.829H2.116v4.829H0V98.33h4.352c1.417,0,2.456,0.317,3.12,0.96
			c0.669,0.64,0.999,1.465,0.999,2.48c0,1.51-0.703,2.546-2.116,3.113L8.411,110.071z M2.116,103.549h1.891
			c0.761,0,1.332-0.157,1.704-0.479c0.373-0.321,0.559-0.766,0.559-1.326c0-0.515-0.183-0.932-0.551-1.25
			c-0.366-0.317-0.879-0.478-1.538-0.478H2.116V103.549z"/>
		<path d="M8.995,141.23H0v-11.744h8.918v1.744H2.116v3.185h5.735v1.701H2.116v3.289h6.879V141.23z"/>
		<path d="M7.011,76.85H1.963v-7.765h4.996v1.155H3.364v2.105h2.89v1.125h-2.89v2.174h3.647V76.85z"/>
		<path d="M61.48,0L49.079,46.377h-8.765l-9.242-34.111L22.68,46.377h-8.596L1.411,0h8.868l8.969,33.807L27.606,0h8.459
			l9.242,33.807L54.108,0H61.48z"/>
		<path d="M75.643,46.377h-8.358V0h8.358V46.377z"/>
		<path d="M122.301,46.377h-9.343l-9.785-23.613l-8.969,11.892v11.721h-8.358V0h8.358v24.361c1.063-1.654,1.833-2.797,2.31-3.432
			L111.905,0h8.46l-11.01,15.255L122.301,46.377z"/>

		<path d="M136.931,46.377h-8.358V0h8.358V46.377z"/>
		<path fill="#970F00" d="M155.491,46.377h-8.358V0h18.992c5.412,0,9.427,1.365,12.043,4.095c2.616,2.73,3.923,5.951,3.923,9.666
			c0,4.237-1.415,7.667-4.245,10.294c-2.832,2.629-6.422,3.941-10.771,3.941h-11.584V46.377z M155.491,20.828h9.886
			c2.58,0,4.553-0.634,5.91-1.903c1.36-1.268,2.039-2.956,2.039-5.063c0-1.901-0.628-3.533-1.886-4.892
			c-1.26-1.359-3.529-2.039-6.812-2.039h-9.138V20.828z"/>
		<path fill="#3953A4" d="M217.379,46.377H188.84V0h8.799v38.8h19.74V46.377z"/>
		<path d="M231.904,46.377h-8.358V0h8.358V46.377z"/>
		<path d="M278.495,46.377h-8.938l-3.702-11.042H248.02l-3.638,11.042h-7.135L252.64,0h10.291L278.495,46.377z M263.61,28.643
			l-6.759-20.692l-6.764,20.692H263.61z"/>
		<path d="M19.024,140.99h-3.396v-14.846h-4.669v-2.715h12.736v2.715h-4.671V140.99z"/>
		<path d="M38.655,140.99H35.49v-7.626h-6.701v7.626h-3.165V123.43h3.165v7.217h6.701v-7.217h3.165V140.99z"/>
		<path d="M56.292,140.99h-3.383l-1.402-4.182h-6.753l-1.378,4.182h-2.702l5.828-17.561h3.897L56.292,140.99z M50.659,134.277
			l-2.561-7.837l-2.563,7.837H50.659z"/>
		<path d="M63.11,140.99h-3.395v-14.846h-4.671v-2.715h12.736v2.715H63.11V140.99z"/>

		<path d="M90.075,140.99H86.69l-1.4-4.182h-6.755l-1.375,4.182h-2.702l5.828-17.561h3.897L90.075,140.99z M84.437,134.277
			l-2.557-7.837l-2.56,7.837H84.437z"/>
		<path d="M105.447,140.99h-3.075l-6.664-11.218c-0.103-0.171-0.271-0.45-0.503-0.839c-0.101-0.167-0.259-0.438-0.475-0.808v12.864
			h-2.546V123.43h3.499l6.15,10.343c0.051,0.088,0.424,0.718,1.119,1.893V123.43h2.495V140.99z"/>
		<path d="M116.368,140.99h-3.357v-7.41l-5.982-10.15h3.834l4.169,7.244l3.988-7.244h3.034l-5.686,10.15V140.99z"/>
		<path d="M129.22,141.262c-2.335,0-4.148-0.876-5.446-2.627c-1.302-1.747-1.951-3.909-1.951-6.481c0-2.556,0.691-4.694,2.073-6.413
			c1.378-1.72,3.202-2.58,5.467-2.58c2.281,0,4.083,0.86,5.41,2.58c1.324,1.719,1.986,3.869,1.986,6.451
			c0,2.709-0.688,4.899-2.063,6.565C133.318,140.426,131.494,141.262,129.22,141.262z M129.246,138.713
			c1.14,0,2.107-0.471,2.895-1.414c0.789-0.944,1.185-2.655,1.185-5.132c0-2.017-0.328-3.599-0.978-4.743
			c-0.652-1.146-1.665-1.716-3.036-1.716c-2.711,0-4.067,2.185-4.067,6.548c0,2.116,0.347,3.723,1.039,4.816
			C126.973,138.168,127.96,138.713,129.246,138.713z"/>
		<path d="M152.969,140.99h-3.076l-6.663-11.218c-0.103-0.171-0.271-0.45-0.503-0.839c-0.102-0.167-0.261-0.438-0.475-0.808v12.864
			h-2.546V123.43h3.498l6.147,10.343c0.053,0.088,0.424,0.718,1.12,1.893V123.43h2.497V140.99z"/>
		<path d="M168.237,140.99h-11.41V123.43h11.295v2.613h-8.132v4.759h6.538v2.547h-6.538v4.913h8.247V140.99z"/>
		<path d="M187.367,134.893l2.935,0.322c-0.188,1.758-0.871,3.206-2.039,4.343c-1.171,1.133-2.709,1.704-4.615,1.704
			c-1.603,0-2.903-0.402-3.904-1.209c-0.995-0.808-1.765-1.901-2.307-3.282c-0.541-1.379-0.812-2.901-0.812-4.567
			c0-2.674,0.635-4.851,1.903-6.527c1.271-1.677,3.014-2.516,5.236-2.516c1.742,0,3.188,0.536,4.346,1.608
			c1.162,1.072,1.89,2.605,2.191,4.605l-2.935,0.308c-0.541-2.649-1.734-3.974-3.574-3.974c-1.186,0-2.104,0.551-2.763,1.652
			c-0.655,1.102-0.985,2.7-0.985,4.793c0,2.126,0.353,3.732,1.057,4.817c0.707,1.085,1.633,1.627,2.79,1.627
			c0.928,0,1.718-0.363,2.368-1.093C186.913,136.772,187.282,135.904,187.367,134.893z"/>
		<path d="M206.459,140.99h-3.384l-1.403-4.182h-6.757l-1.374,4.182h-2.702l5.83-17.561h3.898L206.459,140.99z M200.822,134.277
			l-2.561-7.837l-2.557,7.837H200.822z"/>
		<path d="M221.832,140.99h-3.078l-6.663-11.218c-0.104-0.171-0.269-0.45-0.5-0.839c-0.104-0.167-0.262-0.438-0.477-0.808v12.864
			h-2.547V123.43h3.497l6.151,10.343c0.051,0.088,0.424,0.718,1.119,1.893V123.43h2.497V140.99z"/>

		<path d="M243.686,140.99h-11.409V123.43h11.297v2.613h-8.133v4.759h6.535v2.547h-6.535v4.913h8.245V140.99z"/>
		<path d="M246.323,140.99V123.43h6.47c2.393,0,4.317,0.848,5.766,2.542c1.445,1.693,2.175,3.785,2.175,6.271
			c0,2.489-0.75,4.566-2.237,6.24c-1.492,1.673-3.628,2.508-6.407,2.508H246.323z M249.578,138.403h2.637
			c1.414,0,2.618-0.531,3.604-1.595c0.987-1.062,1.477-2.644,1.477-4.746c0-1.714-0.432-3.168-1.29-4.354
			c-0.864-1.188-2.001-1.783-3.416-1.783h-3.012V138.403z"/>
		<path d="M266.826,140.99h-3.16V123.43h3.16V140.99z"/>
		<path d="M276.826,140.99h-3.397v-14.846h-4.667v-2.715h12.733v2.715h-4.669V140.99z"/>
		<path fill="#970F00" d="M16.866,77.399h-4.71V51.284h10.7c3.044,0,5.307,0.768,6.778,2.304c1.479,1.538,2.215,3.352,2.215,5.444
			c0,2.384-0.8,4.317-2.395,5.798c-1.593,1.479-3.617,2.219-6.065,2.219h-6.523V77.399z M16.866,63.011h5.567
			c1.452,0,2.563-0.359,3.329-1.069c0.768-0.717,1.147-1.667,1.147-2.854c0-1.073-0.354-1.99-1.059-2.756
			c-0.709-0.764-1.99-1.146-3.836-1.146h-5.148V63.011z"/>
		<path fill="#970F00" d="M55.993,77.399H51.02l-4.056-10.735h-6.621v10.735h-4.705V51.284h11.326c3.151,0,5.462,0.711,6.944,2.133
			c1.481,1.422,2.221,3.26,2.221,5.519c0,3.355-1.571,5.666-4.708,6.927L55.993,77.399z M40.343,62.896h5.853
			c1.695,0,2.961-0.356,3.79-1.071c0.828-0.714,1.243-1.699,1.243-2.947c0-1.146-0.407-2.073-1.223-2.783
			c-0.817-0.705-1.958-1.062-3.425-1.062h-6.238V62.896z"/>
		<path fill="#970F00" d="M70.096,77.802c-3.472,0-6.17-1.3-8.102-3.902c-1.937-2.604-2.901-5.819-2.901-9.646
			c0-3.8,1.025-6.98,3.082-9.537c2.053-2.557,4.766-3.836,8.133-3.836c3.39,0,6.072,1.28,8.043,3.836
			c1.972,2.556,2.957,5.758,2.957,9.594c0,4.035-1.023,7.289-3.07,9.769C76.19,76.562,73.476,77.802,70.096,77.802z M70.132,74.013
			c1.696,0,3.134-0.701,4.308-2.103c1.171-1.405,1.759-3.95,1.759-7.634c0-2.999-0.487-5.35-1.455-7.052
			c-0.97-1.702-2.475-2.554-4.516-2.554c-4.029,0-6.046,3.245-6.046,9.737c0,3.151,0.513,5.54,1.539,7.167
			C66.753,73.201,68.221,74.013,70.132,74.013z"/>
		<path fill="#970F00" d="M105.513,64.045v13.354h-2.087l-1.434-3.518c-1.518,2.614-3.874,3.921-7.06,3.921
			c-3.559,0-6.217-1.352-7.972-4.057c-1.751-2.705-2.63-5.836-2.63-9.393c0-3.764,0.98-6.95,2.936-9.56
			c1.961-2.608,4.699-3.912,8.222-3.912c2.626,0,4.787,0.761,6.485,2.285c1.695,1.526,2.768,3.421,3.214,5.694l-4.094,0.727
			c-0.766-3.186-2.595-4.785-5.49-4.785c-1.851,0-3.359,0.756-4.524,2.259c-1.169,1.506-1.752,3.822-1.752,6.945
			c0,6.598,2.066,9.895,6.197,9.895c1.61,0,2.938-0.557,3.991-1.665c1.051-1.111,1.579-2.58,1.579-4.401h-5.396v-3.79H105.513z"/>
		<path fill="#970F00" d="M131.208,77.399h-4.975l-4.054-10.735h-6.621v10.735h-4.71V51.284h11.331c3.149,0,5.463,0.711,6.944,2.133
			c1.482,1.422,2.222,3.26,2.222,5.519c0,3.355-1.572,5.666-4.71,6.927L131.208,77.399z M115.558,62.896h5.854
			c1.695,0,2.959-0.356,3.789-1.071c0.831-0.714,1.243-1.699,1.243-2.947c0-1.146-0.407-2.073-1.224-2.783
			c-0.817-0.705-1.957-1.062-3.426-1.062h-6.236V62.896z"/>

		<path fill="#970F00" d="M156.523,77.399h-5.033l-2.086-6.217h-10.045l-2.046,6.217h-4.019l8.667-26.115h5.799L156.523,77.399z
			 M148.145,67.41l-3.813-11.651l-3.805,11.651H148.145z"/>
		<path fill="#970F00" d="M185.281,77.399h-4.803V54.537l-7.235,22.862h-2.465l-7.273-22.862v22.862h-3.845V51.284h7.365
			l5.472,16.816l5.379-16.816h7.405V77.399z"/>
		<path fill="#970F00" d="M216.66,77.399h-4.801V54.537l-7.234,22.862h-2.467l-7.273-22.862v22.862h-3.844V51.284h7.365
			l5.473,16.816l5.379-16.816h7.402V77.399z"/>
		<path fill="#970F00" d="M227.131,77.399h-4.708V51.284h4.708V77.399z"/>
		<path fill="#970F00" d="M252.593,77.399h-4.572l-9.909-16.683c-0.155-0.255-0.405-0.67-0.749-1.243
			c-0.149-0.257-0.386-0.659-0.705-1.205v19.131h-3.791V51.284h5.202l9.149,15.38c0.077,0.126,0.631,1.067,1.667,2.814V51.284h3.708
			V77.399z"/>
		<path fill="#970F00" d="M278.159,64.045v13.354h-2.09l-1.437-3.518c-1.515,2.614-3.869,3.921-7.056,3.921
			c-3.559,0-6.222-1.352-7.967-4.057c-1.762-2.705-2.636-5.836-2.636-9.393c0-3.764,0.979-6.95,2.94-9.56
			c1.954-2.608,4.694-3.912,8.214-3.912c2.629,0,4.789,0.761,6.485,2.285c1.697,1.526,2.772,3.421,3.219,5.694l-4.095,0.727
			c-0.767-3.186-2.595-4.785-5.493-4.785c-1.849,0-3.356,0.756-4.53,2.259c-1.156,1.506-1.746,3.822-1.746,6.945
			c0,6.598,2.068,9.895,6.196,9.895c1.613,0,2.937-0.557,4-1.665c1.043-1.111,1.573-2.58,1.573-4.401h-5.396v-3.79H278.159z"/>
		<path fill="#3953A4" d="M35.733,118.591H12.156V80.273h7.272v32.056h16.305V118.591z"/>
		<path fill="#3953A4" d="M70.884,118.591h-7.38l-3.06-9.123H45.712l-3.014,9.123h-5.89l12.717-38.318h8.505L70.884,118.591z
			 M58.592,103.936L53.009,86.84l-5.59,17.096H58.592z"/>
		<path fill="#3953A4" d="M104.435,118.591H97.73L83.18,94.112c-0.223-0.375-0.581-0.983-1.089-1.824
			c-0.229-0.378-0.575-0.965-1.044-1.766v28.068H75.49V80.273h7.637L96.55,102.84c0.116,0.187,0.919,1.565,2.446,4.129V80.273h5.439
			V118.591z"/>

		<path fill="#3953A4" d="M141.942,98.997v19.594h-3.06l-2.106-5.162c-2.223,3.835-5.681,5.754-10.356,5.754
			c-5.224,0-9.125-1.983-11.694-5.952c-2.577-3.971-3.86-8.563-3.86-13.784c0-5.522,1.435-10.198,4.31-14.026
			c2.864-3.826,6.895-5.74,12.06-5.74c3.854,0,7.025,1.116,9.516,3.354c2.485,2.237,4.064,5.021,4.709,8.354l-6.006,1.066
			c-1.122-4.676-3.81-7.021-8.05-7.021c-2.719,0-4.924,1.109-6.645,3.314c-1.709,2.211-2.569,5.609-2.569,10.193
			c0,9.679,3.038,14.515,9.099,14.515c2.353,0,4.305-0.815,5.857-2.443c1.538-1.626,2.308-3.781,2.308-6.457h-7.912v-5.558H141.942z
			"/>
		<path fill="#3953A4" d="M176.085,80.273v24.619c0,3.333-0.379,5.896-1.131,7.688c-0.741,1.8-2.185,3.35-4.341,4.648
			c-2.133,1.3-4.755,1.954-7.84,1.954c-3.124,0-5.688-0.562-7.716-1.684c-2.003-1.127-3.444-2.661-4.33-4.621
			c-0.873-1.956-1.317-4.452-1.317-7.48V80.273h7.049v24.619c0,3.368,0.699,5.582,2.126,6.639c1.403,1.061,3.047,1.589,4.918,1.589
			c2.152,0,3.88-0.567,5.167-1.702c1.291-1.128,1.936-3.303,1.936-6.525V80.273H176.085z"/>
		<path fill="#3953A4" d="M213.058,118.591h-7.39l-3.051-9.123h-14.75l-2.996,9.123h-5.903l12.724-38.318h8.505L213.058,118.591z
			 M200.764,103.936l-5.588-17.096l-5.592,17.096H200.764z"/>
		<path fill="#3953A4" d="M245.428,98.997v19.594h-3.067l-2.1-5.162c-2.232,3.835-5.687,5.754-10.362,5.754
			c-5.22,0-9.128-1.983-11.683-5.952c-2.588-3.971-3.868-8.563-3.868-13.784c0-5.522,1.429-10.198,4.315-14.026
			c2.864-3.826,6.884-5.74,12.05-5.74c3.854,0,7.037,1.116,9.515,3.354c2.498,2.237,4.062,5.021,4.723,8.354l-6.009,1.066
			c-1.129-4.676-3.809-7.021-8.059-7.021c-2.716,0-4.918,1.109-6.646,3.314c-1.702,2.211-2.557,5.609-2.557,10.193
			c0,9.679,3.022,14.515,9.084,14.515c2.366,0,4.305-0.815,5.862-2.443c1.532-1.626,2.315-3.781,2.315-6.457h-7.918v-5.558H245.428z
			"/>
		<path fill="#3953A4" d="M278.159,118.591h-24.902V80.273h24.648v5.698h-17.739v10.385h14.255v5.562h-14.255v10.722h17.993V118.591
			z"/>
	</g>
</svg>
